<svg xmlns="http://www.w3.org/2000/svg" width="50" height="44" viewBox="0 0 50 44">
    <g fill="none" fill-rule="evenodd">
        <rect width="50" height="44" fill="#000" rx="4"/>
        <path fill="#FFF" fill-rule="nonzero" d="M20.87 20.616v2.773s3.022-.005 4.257-.005c-.67 1.794-1.703 2.773-4.257 2.773-2.585 0-4.598-1.86-4.598-4.157 0-2.297 2.019-4.157 4.598-4.157 1.368 0 2.25.427 3.059 1.022.65-.579.596-.66 2.244-2.043-1.399-1.13-3.26-1.822-5.297-1.822C16.527 15 13 18.135 13 22s3.527 7 7.876 7c6.5 0 8.088-5.032 7.56-8.384H20.87zm13.553 1.14V19.2h-1.836v2.555H29.94v1.821h2.646V26.2h1.836v-2.624H37v-1.82h-2.577z"/>
    </g>
</svg>
