<svg xmlns="http://www.w3.org/2000/svg" width="50" height="44" viewBox="0 0 50 44">
    <g fill="none" fill-rule="evenodd">
        <rect width="50" height="44" fill="#02ACED" rx="4"/>
        <path fill="#FFF" fill-rule="nonzero" d="M34.78 16.34a7.804 7.804 0 0 1-2.258.619 3.945 3.945 0 0 0 1.729-2.174c-.76.45-1.601.778-2.497.953a3.93 3.93 0 0 0-2.87-1.24 3.93 3.93 0 0 0-3.829 4.825 11.163 11.163 0 0 1-8.102-4.106 3.93 3.93 0 0 0 1.216 5.247 3.92 3.92 0 0 1-1.78-.491v.049a3.933 3.933 0 0 0 3.153 3.854 3.957 3.957 0 0 1-1.775.068 3.936 3.936 0 0 0 3.672 2.729 7.886 7.886 0 0 1-5.82 1.628 11.137 11.137 0 0 0 6.026 1.764c7.23 0 11.184-5.988 11.184-11.181 0-.17-.004-.34-.012-.51a7.973 7.973 0 0 0 1.962-2.034z"/>
    </g>
</svg>
