<svg xmlns="http://www.w3.org/2000/svg" width="199" height="171" viewBox="0 0 199 171">
    <g fill="#FFF" fill-rule="evenodd">
        <path d="M0 0h39.13v39.13H0zM56.522 0h39.13v39.13h-39.13zM113.043 0h39.13v39.13h-39.13zM56.522 56.522h39.13v39.13h-39.13zM0 56.522h39.13v39.13H0zM0 113.043h39.13v39.13H0zM56.522 113.043h39.13v39.13h-39.13z"/>
        <path fill-rule="nonzero" d="M140.52 152.837l40.601-.58v-31.604c-11.481-2.413-18.641-4.493-21.48-6.24-8.524-5.246-7.022-6.674-7.022-15.651V75.827c-2.733-.17-6.614-.17-11.646 0-.05 5.544 0 24.215 0 36.306 0 6.968-4.981 13.374-14.532 9.708l14.08 30.996zm-29.297-48.154h12.359V65.397c.472-3.409 2.632-5.564 5.81-6.961h34.73c3.046 1.28 4.898 3.348 5.888 5.987v34.339c10.515 1.266 20.383 4.233 28.502 11.8v53.373l-5.092 5.54-64.028.914c-12.685-18.673-19.097-36.494-24.616-54.193v-6.42c1.413-2.77 3.918-3.949 6.447-5.093z"/>
    </g>
</svg>
