<svg width="75" height="75" xmlns="http://www.w3.org/2000/svg">

 <g>
  <title>background</title>
  <rect fill="none" id="canvas_background" height="402" width="582" y="-1" x="-1"/>
 </g>
 <g>
  <title>Layer 1</title>
  <g stroke="null" transform="rotate(31.169462203979492 38.302955627441385,37.6177101135254) " id="svg_1" fill-rule="evenodd" fill="#00A0E1">
   <path stroke="null" id="svg_2" d="m15.524612,16.400651l8.979931,0l0,9.745036l-8.979931,0l0,-9.745036zm12.971216,0l8.979931,0l0,9.745036l-8.979931,0l0,-9.745036zm12.970986,0l8.979931,0l0,9.745036l-8.979931,0l0,-9.745036zm-12.970986,14.076385l8.979931,0l0,9.745036l-8.979931,0l0,-9.745036zm-12.971216,0l8.979931,0l0,9.745036l-8.979931,0l0,-9.745036zm0,14.076136l8.979931,0l0,9.745036l-8.979931,0l0,-9.745036zm12.971216,0l8.979931,0l0,9.745036l-8.979931,0l0,-9.745036z"/>
   <path stroke="null" id="svg_3" d="m47.772502,54.463573l9.317511,-0.144445l0,-7.870742c-2.634771,-0.60094 -4.277917,-1.118948 -4.929438,-1.554026c-1.95617,-1.306477 -1.611477,-1.66211 -1.611477,-3.897766l0,-5.711792c-0.627195,-0.042337 -1.517845,-0.042337 -2.672637,0c-0.011474,1.380692 0,6.030566 0,9.04174c0,1.735329 -1.143088,3.330696 -3.334944,2.417705l3.231215,7.719324l-0.000229,0zm-6.72313,-11.992397l2.836263,0l0,-9.783887c0.108319,-0.848986 0.604017,-1.385673 1.333335,-1.733585l7.970177,0c0.699026,0.318775 1.12404,0.833795 1.351235,1.491018l0,8.551873c2.413084,0.315288 4.677688,1.054197 6.540915,2.938703l0,13.29215l-1.168561,1.379696l-14.693765,0.227625c-2.911077,-4.650372 -4.382564,-9.08856 -5.649118,-13.496365l0,-1.598853c0.324269,-0.689848 0.899141,-0.983469 1.47952,-1.268374z" fill-rule="nonzero"/>
  </g>
 </g>
</svg>
