<svg xmlns="http://www.w3.org/2000/svg" width="120" height="38" viewBox="0 0 120 38">
    <g fill="#FFF" fill-rule="evenodd">
        <path d="M113.25 16.8c-1.004 2.065-.306 8.089-.306 9.941 0 2.25 1.812 4.072 4.046 4.072H120v6.413c-.898.244-1.842.374-2.816.374-5.958 0-10.784-3.608-10.784-9.605 0-4.6 2.839-9.269 6.85-11.195zM54.51 26.996l4.295-16.58 6.857-.027-6.357 27.195-2.042.008.005.02-2.614-.01-2.894.012.006-.023-1.462-.006-7.166-27.198 7.064.028 4.308 16.581zM81.695 27.175l4.31-16.759 6.857-.027-6.312 27.195-2.186.009.005.02-2.518-.01-2.84.01.006-.022-1.57-.006-7.11-27.198 7.065.028 4.293 16.76z"/>
        <g transform="translate(32)">
            <path d="M0 10.743h7.2V37.6H0z"/>
            <ellipse cx="3.6" cy="3.357" rx="3.6" ry="3.357"/>
        </g>
        <path d="M113.057 10.716h5.343v6.568h-5.343V28h-6.568V17.284h-.089v-6.568h.089V0h6.568v10.716z"/>
        <g transform="translate(95.2)">
            <path d="M0 10.743h7.2V37.6H0z"/>
            <ellipse cx="3.6" cy="3.357" rx="3.6" ry="3.357"/>
        </g>
        <path d="M27.52 26.754C26.065 32.972 20.54 37.6 13.945 37.6 6.244 37.6 0 31.287 0 23.5S6.244 9.4 13.946 9.4c.88 0 1.742.083 2.577.24-.865 2.272-2.024 6.474-2.577 6.474-4.034 0-7.305 3.307-7.305 7.386 0 4.079 3.27 7.386 7.305 7.386s7.305-3.307 7.305-7.386V0h6.641c.144 11.471.144 19.232-.001 23.283a14.543 14.543 0 0 1-.1 1.929c-.03.38-.062.682-.097.906a2.8 2.8 0 0 1-.175.636z"/>
    </g>
</svg>
