<?xml version="1.0" encoding="UTF-8"?>
<svg width="120px" height="38px" viewBox="0 0 120 38" version="1.1" xmlns="http://www.w3.org/2000/svg" xmlns:xlink="http://www.w3.org/1999/xlink">
    <!-- Generator: sketchtool 53 (72520) - https://sketchapp.com -->
    <title>3EB0DE77-EF1D-4FB6-8635-B1B1F679DAA8</title>
    <desc>Created with sketchtool.</desc>
    <g id="test" stroke="none" stroke-width="1" fill="none" fill-rule="evenodd">
        <g id="sign-in" transform="translate(-60.000000, -60.000000)" fill="#FFFFFF">
            <g id="logo-text" transform="translate(60.000000, 60.000000)">
                <path d="M113.249456,16.8 C112.246365,18.8650771 112.944432,24.8885699 112.944432,26.7412476 C112.944432,28.9901688 114.755574,30.8132797 116.98973,30.8132797 C117.374991,30.8132797 118.378414,30.8132797 120,30.8132797 L120,37.2261995 C119.102177,37.4699668 118.157991,37.6 117.183633,37.6 C111.225883,37.6 106.4,33.9920336 106.4,27.9949102 C106.4,23.3954149 109.238646,18.7264115 113.249456,16.8 Z" id="Combined-Shape"></path>
                <path d="M54.5099914,26.9960149 L58.804683,10.4159361 L65.6623747,10.3888032 L59.3050084,37.5840639 L57.262971,37.5921434 L57.2683405,37.6128107 L54.6538749,37.6024664 L51.7596656,37.6139175 L51.7655919,37.5910387 L50.3037957,37.5852551 L43.1375003,10.3867938 L50.2020125,10.4147449 L54.5099914,26.9960149 Z" id="Combined-Shape"></path>
                <path d="M81.6954174,27.1749187 L86.0046552,10.4160277 L92.862346,10.388895 L86.5498058,37.5839723 L84.3640743,37.5926202 L84.3691733,37.6125256 L81.8511173,37.6025628 L79.0112532,37.6137989 L79.0170256,37.5913496 L77.4479419,37.5851415 L70.3375551,10.3869075 L77.4020664,10.4148585 L81.6954174,27.1749187 Z" id="Combined-Shape-Copy"></path>
                <g id="Group" transform="translate(32.000000, 0.000000)">
                    <polygon id="Rectangle-3" points="0 10.7428571 7.2 10.7428571 7.2 37.6 0 37.6"></polygon>
                    <ellipse id="Oval-2" cx="3.6" cy="3.35714286" rx="3.6" ry="3.35714286"></ellipse>
                </g>
                <path d="M113.05679,10.7160494 L118.4,10.7160494 L118.4,17.2839506 L113.05679,17.2839506 L113.05679,28 L106.488889,28 L106.488889,17.2839506 L106.4,17.2839506 L106.4,10.7160494 L106.488889,10.7160494 L106.488889,0 L113.05679,0 L113.05679,10.7160494 Z" id="Combined-Shape"></path>
                <g id="Group-Copy" transform="translate(95.200000, 0.000000)">
                    <polygon id="Rectangle-3" points="0 10.7428571 7.2 10.7428571 7.2 37.6 0 37.6"></polygon>
                    <ellipse id="Oval-2" cx="3.6" cy="3.35714286" rx="3.6" ry="3.35714286"></ellipse>
                </g>
                <path d="M27.5191145,26.7535208 C26.0663388,32.9722186 20.5407638,37.6 13.9461094,37.6 C6.24388587,37.6 0,31.287215 0,23.5 C0,15.712785 6.24388587,9.4 13.9461094,9.4 C14.8266624,9.4 15.6881548,9.4825087 16.5234358,9.64029648 C15.657943,11.912192 14.4985429,16.1142857 13.9461094,16.1142857 C9.91161137,16.1142857 6.64100449,19.4209826 6.64100449,23.5 C6.64100449,27.5790174 9.91161137,30.8857143 13.9461094,30.8857143 C17.9806075,30.8857143 21.2512144,27.5790174 21.2512144,23.5 L21.2512144,0 L27.8922188,0 C28.0364622,11.4712972 28.0359251,19.2324434 27.8906073,23.2834384 C27.8916804,23.3554959 27.8922188,23.4276844 27.8922188,23.5 C27.8922188,24.0793975 27.8576533,24.6506327 27.7904932,25.2117127 C27.7613464,25.591638 27.7291583,25.8936291 27.6939291,26.1176862 C27.6579609,26.3464431 27.5996893,26.5583879 27.5191145,26.7535208 Z" id="Combined-Shape"></path>
            </g>
        </g>
    </g>
</svg>