<svg xmlns="http://www.w3.org/2000/svg" xmlns:xlink="http://www.w3.org/1999/xlink" width="19" height="19" viewBox="0 0 19 19">
    <defs>
        <path id="a" d="M.084 7.211c.11-.181.32-.484.624-.869A14.006 14.006 0 0 1 2.49 4.475C4.482 2.742 6.824 1.688 9.5 1.688s5.018 1.054 7.01 2.787a14.006 14.006 0 0 1 1.782 1.867c.304.385.513.688.624.87a.54.54 0 0 1 0 .577c-.11.181-.32.484-.624.869a14.006 14.006 0 0 1-1.782 1.867c-1.992 1.733-4.334 2.787-7.01 2.787s-5.018-1.054-7.01-2.787A14.006 14.006 0 0 1 .708 8.658a9.576 9.576 0 0 1-.624-.87.54.54 0 0 1 0-.577zm1.954.746c.455.575.993 1.15 1.607 1.685 1.72 1.496 3.682 2.379 5.855 2.379 2.173 0 4.136-.883 5.855-2.38a12.652 12.652 0 0 0 1.95-2.141 12.652 12.652 0 0 0-1.95-2.142C13.635 3.862 11.673 2.98 9.5 2.98c-2.173 0-4.136.883-5.855 2.38A12.652 12.652 0 0 0 1.695 7.5c.1.14.214.294.343.457z"/>
    </defs>
    <g fill="none" fill-rule="evenodd" opacity=".4" transform="translate(0 2)">
        <use fill="#3C4652" fill-rule="nonzero" xlink:href="#a"/>
        <path fill="#3C4652" d="M9.5 10.667a3.167 3.167 0 1 1 0-6.334 3.167 3.167 0 0 1 0 6.334zm0-1.584a1.583 1.583 0 1 0 0-3.166 1.583 1.583 0 0 0 0 3.166z"/>
        <path stroke="#3C4652" stroke-linecap="round" stroke-linejoin="round" stroke-width="2" d="M15.662.735L2.517 13.88"/>
    </g>
</svg>
